<?xml version="1.0" encoding="iso-8859-1"?>
<!-- Uploaded to: SVG Repo, www.svgrepo.com, Generator: SVG Repo Mixer Tools -->
<!DOCTYPE svg PUBLIC "-//W3C//DTD SVG 1.1//EN" "http://www.w3.org/Graphics/SVG/1.1/DTD/svg11.dtd">
<svg height="800px" width="800px" version="1.1" id="Capa_1" xmlns="http://www.w3.org/2000/svg" xmlns:xlink="http://www.w3.org/1999/xlink" 
	 viewBox="0 0 442.655 442.655" xml:space="preserve">
<g id="XMLID_8_">
	<g>
		<path style="fill:#B3B3B3;" d="M412.475,167.603l11.97,4.59c-25.98,49.22-66.71,89.95-115.93,115.93l-4.59-11.96
			c28.98-16.57,54.69-37.8,76.51-63.17c2.7-3.14,2.34-7.88-0.8-10.58c-3.14-2.7-7.88-2.34-10.58,0.8
			c-20.19,23.49-43.91,43.21-70.58,58.76l-25.94-67.57c-0.38-0.98-0.95-1.87-1.7-2.62l-59.39-59.39l57.27-57.27l59.4,59.39
			c0.74,0.74,1.63,1.32,2.61,1.7l67.57,25.94c-2.23,3.83-4.55,7.61-6.94,11.3c-2.26,3.48-1.27,8.12,2.2,10.38
			c1.26,0.82,2.68,1.21,4.08,1.21c2.45,0,4.86-1.21,6.3-3.42C406.895,177.053,409.755,172.353,412.475,167.603z"/>
		<path style="fill:#E29E30;" d="M337.895,92.923c1.29,1.29,1.29,3.4,0,4.69l-12.74,12.74l-37.12-37.13l12.73-12.73
			c0.85-0.85,1.84-0.97,2.35-0.97c0.51,0,1.5,0.12,2.35,0.97L337.895,92.923z"/>
		<path style="fill:#E29E30;" d="M246.675,188.833l-192.24,192.24c-2.76,2.76-7.24,2.76-10,0l-27.12-27.12
			c-2.76-2.76-2.76-7.25,0-10l9.5-9.51c2.08-2.07,4.52-3.63,7.29-4.64c2.73-1.01,5.61-1.4,8.53-1.15
			c10.29,0.86,20.39-2.83,27.69-10.14l84.11-84.11c3.8-3.8,6.77-8.25,8.82-13.22c2.07-4.97,3.12-10.22,3.12-15.61
			c0-6.89,2.69-13.37,7.55-18.24l35.62-35.62L246.675,188.833z"/>
		<path style="fill:#4D4D4D;" d="M441.885,165.433c0.77,1.96,0.68,4.15-0.24,6.04c-28.38,57.93-75.92,105.47-133.84,133.84
			c-1.04,0.51-2.17,0.77-3.3,0.77c-0.93,0-1.86-0.17-2.75-0.52c-1.96-0.77-3.5-2.33-4.26-4.29l-38.39-100.01l-1.83-1.82
			l-192.23,192.24c-4.31,4.3-9.96,6.45-15.61,6.45s-11.3-2.15-15.61-6.45l-27.12-27.13c-8.61-8.6-8.61-22.6,0-31.21l9.5-9.5
			c3.59-3.59,7.99-6.4,12.74-8.13c4.78-1.76,9.81-2.44,14.94-2.01c5.89,0.49,11.66-1.62,15.84-5.8l84.1-84.1
			c2.4-2.4,4.28-5.22,5.58-8.36c1.31-3.15,1.97-6.47,1.97-9.87c0.01-10.91,4.25-21.15,11.95-28.85l35.62-35.62l-3.41-3.41
			c-1.41-1.4-2.2-3.31-2.2-5.3s0.79-3.9,2.2-5.3l67.88-67.88c2.93-2.93,7.68-2.93,10.6,0l3.41,3.41l12.74-12.74
			c3.46-3.46,8.06-5.36,12.95-5.36c4.89,0,9.5,1.9,12.96,5.36l32.42,32.43c7.15,7.14,7.15,18.77,0,25.91l-12.73,12.73l1.82,1.83
			l100.01,38.39C439.555,161.933,441.115,163.473,441.885,165.433z M424.445,172.193l-11.97-4.59c-2.72,4.75-5.58,9.45-8.54,14.02
			c-1.44,2.21-3.85,3.42-6.3,3.42c-1.4,0-2.82-0.39-4.08-1.21c-3.47-2.26-4.46-6.9-2.2-10.38c2.39-3.69,4.71-7.47,6.94-11.3
			l-67.57-25.94c-0.98-0.38-1.87-0.96-2.61-1.7l-59.4-59.39l-57.27,57.27l59.39,59.39c0.75,0.75,1.32,1.64,1.7,2.62l25.94,67.57
			c26.67-15.55,50.39-35.27,70.58-58.76c2.7-3.14,7.44-3.5,10.58-0.8c3.14,2.7,3.5,7.44,0.8,10.58
			c-21.82,25.37-47.53,46.6-76.51,63.17l4.59,11.96C357.735,262.143,398.465,221.413,424.445,172.193z M337.895,97.613
			c1.29-1.29,1.29-3.4,0-4.69l-32.43-32.43c-0.85-0.85-1.84-0.97-2.35-0.97c-0.51,0-1.5,0.12-2.35,0.97l-12.73,12.73l37.12,37.13
			L337.895,97.613z M54.435,381.073l192.24-192.24l-37.13-37.12l-35.62,35.62c-4.86,4.87-7.55,11.35-7.55,18.24
			c0,5.39-1.05,10.64-3.12,15.61c-2.05,4.97-5.02,9.42-8.82,13.22l-84.11,84.11c-7.3,7.31-17.4,11-27.69,10.14
			c-2.92-0.25-5.8,0.14-8.53,1.15c-2.77,1.01-5.21,2.57-7.29,4.64l-9.5,9.51c-2.76,2.75-2.76,7.24,0,10l27.12,27.12
			C47.195,383.833,51.675,383.833,54.435,381.073z"/>
	</g>
	<g>
	</g>
</g>
</svg>